PathFileType	4	(X/Y/Z)	G:\GRF\jawan data\CompiledGRF\03. Mohit Kumar\0231~ac~Walking 01_markers.trc
DataRate	CameraRate	NumFrames	NumMarkers	Units	OrigDataRate	OrigDataStartFrame	OrigNumFrames
100.000000	100.000000	12	18	mm	100.000000	704	805
Frame#	Time	c7			r should			l should			sacrum			r asis			r bar 1			r knee 1			r bar 2			r mall			r heel			r met			l asis			l bar 1			l knee 1			l bar 2			l mall			l heel			l met			
		X1	Y1	Z1	X2	Y2	Z2	X3	Y3	Z3	X4	Y4	Z4	X5	Y5	Z5	X6	Y6	Z6	X7	Y7	Z7	X8	Y8	Z8	X9	Y9	Z9	X10	Y10	Z10	X11	Y11	Z11	X12	Y12	Z12	X13	Y13	Z13	X14	Y14	Z14	X15	Y15	Z15	X16	Y16	Z16	X17	Y17	Z17	X18	Y18	Z18	

705	7.04	2955.86083984375	1508.581787109375	281.3472900390625	3055.643798828125	1457.250244140625	444.4345703125	3029.05078125	1460.352905273438	107.5822525024414	2929.8251953125	1040.753051757813	272.7896118164063	nan	nan	nan	nan	nan	nan	nan	nan	nan	2923.49609375	294.556640625	477.7001342773438	nan	nan	nan	2809.111572265625	167.2635955810547	363.9566955566406	nan	nan	nan	3113.4423828125	1022.937194824219	148.0374145507813	3073.81005859375	591.9826049804688	97.22272491455078	3093.360595703125	509.2709045410156	158.5222015380859	nan	nan	nan	nan	nan	nan	nan	nan	nan	nan	nan	nan	
706	7.05	nan	nan	nan	3062.819091796875	1457.33349609375	443.041259765625	3035.186279296875	1460.835083007813	106.4392471313477	2936.962890625	1041.0341796875	272.4049072265625	nan	nan	nan	nan	nan	nan	nan	nan	nan	nan	nan	nan	2863.384521484375	174.3096618652344	415.8218688964844	2830.388427734375	160.0859985351563	363.4203491210938	nan	nan	nan	3119.501220703125	1022.621154785156	146.5188751220703	3076.30615234375	591.8792114257813	96.51753997802734	3095.7958984375	508.8807983398438	157.9475708007813	nan	nan	nan	nan	nan	nan	nan	nan	nan	nan	nan	nan	
707	7.06	2980.124755859375	1509.166259765625	278.3511047363281	3069.9296875	1457.51904296875	442.1697998046875	3041.8505859375	1461.417724609375	105.4641036987305	2943.6142578125	1041.1279296875	272.0501098632813	nan	nan	nan	nan	nan	nan	nan	nan	nan	nan	nan	nan	2910.72314453125	159.4586334228516	421.73779296875	2846.883544921875	154.0313415527344	363.4295043945313	nan	nan	nan	3125.545654296875	1022.225646972656	145.1187591552734	3078.992431640625	591.6699829101563	95.91679382324219	3098.322998046875	508.5585021972656	157.4483795166016	nan	nan	nan	nan	nan	nan	nan	nan	nan	nan	nan	nan	
708	7.07	2980.1416015625	1510.198364257813	277.6107177734375	3077.123291015625	1457.910278320313	441.7526245117188	3049.7021484375	1462.051391601563	104.5812835693359	2949.910888671875	1041.151489257813	271.836181640625	nan	nan	nan	nan	nan	nan	nan	nan	nan	nan	nan	nan	nan	nan	nan	nan	nan	nan	nan	nan	nan	3131.590576171875	1021.771423339844	143.8078308105469	3081.92919921875	591.4759521484375	95.44361877441406	3100.9482421875	508.2349853515625	157.0411071777344	nan	nan	nan	nan	nan	nan	nan	nan	nan	nan	nan	nan	
709	7.08	2990.72900390625	1510.045043945313	276.6776123046875	3083.831298828125	1457.741577148438	440.6427001953125	3057.115234375	1462.518920898438	103.6301498413086	2956.404296875	1041.202758789063	271.7936096191406	nan	nan	nan	nan	nan	nan	nan	nan	nan	nan	nan	nan	nan	nan	nan	2900.867431640625	132.6644439697266	361.6568298339844	nan	nan	nan	3137.660400390625	1021.294860839844	142.6360626220703	3084.89599609375	591.1315307617188	95.08544158935547	3103.65625	507.8592834472656	156.7151947021484	nan	nan	nan	nan	nan	nan	nan	nan	nan	nan	nan	nan	
710	7.09	2998.8154296875	1509.847778320313	275.7718200683594	3090.61474609375	1457.395874023438	439.2839050292969	3067.455078125	1462.45068359375	103.2721176147461	2963.583740234375	1041.150390625	271.9493408203125	nan	nan	nan	nan	nan	nan	nan	nan	nan	3032.5380859375	263.8550720214844	474.7354736328125	nan	nan	nan	nan	nan	nan	nan	nan	nan	3143.786376953125	1020.834655761719	141.5927124023438	3088.0693359375	590.7683715820313	94.78990936279297	3106.454833984375	507.474365234375	156.446044921875	nan	nan	nan	nan	nan	nan	nan	nan	nan	nan	nan	nan	
711	7.100000000000001	3003.015380859375	1510.211303710938	274.963134765625	3097.584716796875	1457.201049804688	438.7218322753906	3078.666259765625	1462.160400390625	103.0597534179688	2970.21875	1041.25634765625	272.0376281738281	nan	nan	nan	nan	nan	nan	nan	nan	nan	3047.907470703125	259.55859375	474.3681030273438	nan	nan	nan	2958.153564453125	108.8040084838867	359.8506469726563	nan	nan	nan	3149.979736328125	1020.379211425781	140.6838531494141	3091.471435546875	590.4342651367188	94.69369506835938	3109.23193359375	507.0284118652344	156.2373046875	nan	nan	nan	nan	nan	nan	nan	nan	nan	nan	nan	nan	
712	7.11	3011.286376953125	1510.082885742188	274.0668029785156	3104.76806640625	1457.073120117188	438.4222106933594	3083.25146484375	1462.567993164063	101.9285507202148	2978.724609375	1041.10791015625	272.1162414550781	nan	nan	nan	nan	nan	nan	nan	nan	nan	3066.92626953125	254.1567687988281	473.3934020996094	nan	nan	nan	2975.140625	103.0839385986328	359.7503356933594	nan	nan	nan	3156.224609375	1019.938598632813	139.8988342285156	3094.963623046875	590.0914916992188	94.57444000244141	3112.069091796875	506.7134399414063	156.0707397460938	nan	nan	nan	nan	nan	nan	nan	nan	nan	nan	nan	nan	
713	7.12	3025.48486328125	1509.524536132813	273.4335327148438	3111.943603515625	1456.641723632813	437.3924255371094	3092.380859375	1462.335205078125	101.2867126464844	2988.1357421875	1040.61767578125	272.3270568847656	nan	nan	nan	nan	nan	nan	nan	nan	nan	3086.76708984375	248.3268280029297	472.3569641113281	nan	nan	nan	nan	nan	nan	nan	nan	nan	3162.530029296875	1019.484497070313	139.2326812744141	3098.4189453125	589.6798706054688	94.49324798583984	3114.839111328125	506.3718566894531	155.9766540527344	nan	nan	nan	nan	nan	nan	nan	nan	nan	nan	nan	nan	
714	7.13	3032.072998046875	1509.638305664063	272.9499816894531	3118.798583984375	1456.25146484375	436.5859680175781	3097.05224609375	1462.8994140625	100.3767242431641	2995.333984375	1040.387573242188	272.5430603027344	nan	nan	nan	nan	nan	nan	nan	nan	nan	3107.048095703125	242.7651977539063	471.6441650390625	nan	nan	nan	nan	nan	nan	nan	nan	nan	3168.9267578125	1018.9912109375	138.6586456298828	3102.062255859375	589.4843139648438	94.359130859375	3116.68017578125	506.1541748046875	155.9249877929688	nan	nan	nan	nan	nan	nan	nan	nan	nan	nan	nan	nan	
715	7.140000000000001	3035.46142578125	1510.119384765625	272.3830261230469	3125.79833984375	1456.00390625	436.4779357910156	3106.531982421875	1462.1962890625	100.234016418457	3002.031982421875	1040.165283203125	272.7220153808594	nan	nan	nan	nan	nan	nan	nan	nan	nan	nan	nan	nan	nan	nan	nan	nan	nan	nan	nan	nan	nan	3175.384521484375	1018.475524902344	138.1591186523438	3105.75537109375	589.3543090820313	94.34720611572266	nan	nan	nan	nan	nan	nan	nan	nan	nan	nan	nan	nan	nan	nan	nan	
716	7.15	3047.52197265625	1509.752075195313	271.6637878417969	3133.0224609375	1455.568359375	435.907470703125	3120.178466796875	1460.817260742188	100.4240341186523	3007.072509765625	1040.513916015625	272.7494812011719	nan	nan	nan	nan	nan	nan	nan	nan	nan	nan	nan	nan	nan	nan	nan	nan	nan	nan	nan	nan	nan	3181.893798828125	1017.942077636719	137.7099304199219	3109.379638671875	589.1710205078125	94.37045288085938	nan	nan	nan	nan	nan	nan	nan	nan	nan	nan	nan	nan	nan	nan	nan	
